PathFileType	4	(X/Y/Z)	C:/Users/opensim2020/Desktop/walking_exp_matlab/subject01_walking14_straight_01.trc	
DataRate	CameraRate	NumFrames	NumMarkers	Units	OrigDataRate	OrigDataStartFrame	OrigNumFrames	
100.00	100.00	4	42	mm	100.00	770	106	
Frame#	Time	LFHD			RFHD			LBHD			RBHD			C7			T10			CLAV			STRN			RBAK			LSHO			LUPA			LELB			LFRM			LWRA			LWRB			LFIN			RSHO			RUPA			RELB			RFRM			RWRA			RWRB			RFIN			LASI			RASI			LPSI			RPSI			LTHI			LKNE			LTIB			LANK			LHEE			LTOE			RTHI			RKNE			RTIB			RANK			RHEE			RTOE			*39			*40			*41			
		X1	Y1	Z1	X2	Y2	Z2	X3	Y3	Z3	X4	Y4	Z4	X5	Y5	Z5	X6	Y6	Z6	X7	Y7	Z7	X8	Y8	Z8	X9	Y9	Z9	X10	Y10	Z10	X11	Y11	Z11	X12	Y12	Z12	X13	Y13	Z13	X14	Y14	Z14	X15	Y15	Z15	X16	Y16	Z16	X17	Y17	Z17	X18	Y18	Z18	X19	Y19	Z19	X20	Y20	Z20	X21	Y21	Z21	X22	Y22	Z22	X23	Y23	Z23	X24	Y24	Z24	X25	Y25	Z25	X26	Y26	Z26	X27	Y27	Z27	X28	Y28	Z28	X29	Y29	Z29	X30	Y30	Z30	X31	Y31	Z31	X32	Y32	Z32	X33	Y33	Z33	X34	Y34	Z34	X35	Y35	Z35	X36	Y36	Z36	X37	Y37	Z37	X38	Y38	Z38	X39	Y39	Z39	X40	Y40	Z40	X41	Y41	Z41	X42	Y42	Z42	

93	0.920	1414.70764	361.03720	1649.77124	1515.80701	411.92972	1659.12109	1463.28320	255.59090	1604.56104	1571.13843	306.73431	1612.86523	1497.28113	231.83228	1411.00757	1511.89636	200.44688	1116.99963	1482.85144	377.22079	1343.47986	1482.63696	423.61789	1191.45251	1584.39441	186.36201	1219.07727	1328.13953	301.43576	1364.20227	1256.23315	240.89087	1181.23962	1268.95117	199.69850	1039.78064	1245.41284	200.56383	927.18561	1255.90015	241.80045	791.95679	1243.47156	184.25473	805.47418	1231.05396	201.71980	723.41052	1638.17310	326.93719	1381.24597	1762.83557	293.76724	1193.60278	1790.16211	323.82968	1070.62463	1803.72290	413.85852	980.64777	1750.12488	530.64429	921.67456	1799.03357	508.10590	902.30676	1785.73804	581.87738	863.24744	1406.89307	383.90744	915.88690	1623.64063	373.77271	912.21820	1443.88074	194.70041	920.23926	1587.51208	188.30188	931.46320	1345.12891	439.34570	600.95624	1368.07922	471.81674	472.60590	1367.81360	465.74380	285.90332	1420.58386	494.79822	70.11056	1478.91846	458.91721	38.91030	1400.53259	637.73920	48.53039	1694.46423	251.73378	593.97479	1686.23218	215.13788	435.25098	1691.43091	70.90829	329.93127	1660.28650	-68.01977	170.93227	1608.21631	-119.20319	182.40530	1642.06934	-20.11857	32.16972	1497.31384	391.72156	1691.25488	-3102.02148	1973.19873	1023.57654	-3140.80566	2012.46570	1022.15369 
94	0.930	1410.48328	375.34665	1650.04456	1511.69275	425.99329	1659.65479	1458.79346	269.70020	1605.29187	1566.81213	320.57550	1613.74915	1493.25476	246.51015	1411.47327	1509.20117	215.64204	1117.02905	1479.54089	391.54160	1344.36975	1479.60168	438.65521	1192.46472	1580.52039	200.79884	1219.16663	1324.62817	316.15106	1364.04724	1252.62097	257.94028	1180.39734	1265.41272	217.73909	1038.44690	1241.99780	219.67033	925.88928	1252.79443	261.95523	791.06378	1240.06860	204.37775	804.09424	1227.56946	222.51871	722.25610	1634.61975	340.36047	1382.08228	1759.11926	305.42859	1194.50122	1787.13965	334.99200	1071.75146	1801.66492	423.81674	980.63971	1749.26807	540.05933	919.77539	1798.23486	517.00708	901.09088	1785.53040	590.25391	860.83246	1404.11096	399.57761	916.50787	1620.33301	390.15259	912.19037	1441.78137	210.64125	921.46014	1586.22351	204.83174	930.92096	1341.70789	449.74734	599.97522	1367.30469	487.57315	475.38605	1363.43823	480.20032	287.53940	1420.61768	497.47464	70.39605	1478.68481	460.33643	39.96011	1400.83008	640.50024	44.89808	1693.41077	273.98764	591.90424	1686.54895	240.61583	433.01361	1691.34192	93.30599	332.42340	1661.75952	-50.81104	177.60651	1608.41919	-98.78439	194.26659	1640.89990	-18.02411	33.73685	1493.04260	405.88992	1692.08667	-3102.03638	1973.02771	1023.89557	-3140.73218	2012.52429	1022.11505 
95	0.940	1406.25964	389.45581	1650.14490	1507.61865	439.89255	1660.04260	1454.52771	283.69440	1605.59521	1562.63684	334.39374	1614.40869	1489.40674	260.77805	1411.65698	1506.49744	230.49271	1117.06506	1476.35193	405.81277	1345.05408	1476.78918	453.56512	1193.37598	1576.99390	215.27760	1219.29590	1321.33020	330.85306	1364.05713	1249.07507	275.16586	1179.87793	1262.01526	235.88210	1037.46338	1238.53577	239.33006	925.00696	1249.36816	283.09271	790.64874	1236.38831	225.40793	803.08557	1223.81360	244.95924	721.04767	1631.19202	353.89542	1383.03308	1755.27832	316.88644	1195.29688	1784.02783	345.88321	1072.87109	1799.68188	433.48007	980.84839	1748.59375	549.03217	917.67407	1797.29187	525.27924	899.58606	1785.44495	598.14246	858.01862	1401.42773	414.78409	917.40930	1616.93115	406.11429	912.27362	1440.04199	225.88986	922.62189	1584.72766	220.98898	930.27771	1340.92944	462.34375	599.71350	1367.04102	502.17853	476.92896	1360.62720	491.73636	287.54770	1421.00952	499.32336	71.31846	1478.54504	461.31161	40.31390	1400.66553	642.68622	42.41473	1692.14490	296.60910	589.64905	1686.10608	267.09671	430.65857	1691.47424	117.18848	334.75946	1662.42285	-32.31766	184.40944	1609.15918	-78.53648	205.12003	1640.44678	-10.97414	38.44053	1488.80640	420.47546	1692.73962	-3101.94165	1973.20557	1023.45795	-3140.72656	2012.50000	1022.06451 
96	0.950	1402.12549	403.26517	1650.15625	1503.53589	453.66592	1660.54114	1450.40796	297.64490	1605.56909	1558.52930	348.08289	1614.87366	1485.92249	274.64191	1411.80334	1503.79993	245.11218	1117.32141	1473.30908	420.10452	1345.62415	1474.11914	468.01443	1194.05420	1573.68311	229.24150	1219.59314	1318.26025	345.50421	1364.25818	1245.50696	292.44666	1179.47034	1258.49719	254.38609	1036.81726	1234.97290	259.26599	924.38257	1245.44629	305.19852	790.69238	1232.56616	247.19989	802.29205	1219.95520	267.75058	720.59241	1627.92444	367.49097	1383.90466	1751.53186	328.23630	1195.98914	1780.82373	356.57172	1073.88489	1797.57446	442.80093	980.79218	1747.74683	557.57709	915.16211	1796.57166	533.06134	897.82574	1785.27161	605.32544	854.63422	1398.69617	429.34418	918.67596	1613.44067	421.34903	912.72809	1438.53809	240.18155	923.86902	1583.35486	236.63568	929.65039	1340.49902	478.10214	601.18634	1366.36768	515.45807	476.61359	1359.16333	500.50723	286.00299	1421.09399	500.66315	71.01154	1478.04468	461.77805	40.91992	1400.72412	644.74707	41.09131	1690.35706	319.79117	587.10168	1684.89270	294.44028	428.08917	1691.35535	142.09892	336.37885	1662.44800	-11.59494	192.09087	1609.83521	-56.63031	216.30624	1640.34912	-2.00368	44.70108	1484.39612	434.71771	1693.12085	-3102.04395	1973.16333	1023.39410	-3140.62109	2012.55957	1022.12756 
